<svg width="154" height="89" viewBox="0 0 154 89" fill="none" xmlns="http://www.w3.org/2000/svg">
<path d="M0.0167387 26.1724C0.0167387 22.5219 0.552468 19.1059 1.60718 15.9244C2.67864 12.7428 4.25234 9.97991 6.36177 7.6356C8.4712 5.29129 11.0996 3.43259 14.2638 2.0595C17.4112 0.686405 21.0775 0.0166016 25.2629 0.0166016H33.935V42.2141H22.4838V33.1048H11.4512V42.2141H0V26.1724H0.0167387ZM22.5006 23.3257V10.9679C21.0106 10.9679 19.6378 11.2525 18.3654 11.8386C17.0931 12.4247 15.9881 13.2619 15.0171 14.3336C14.0461 15.4053 13.276 16.7114 12.6733 18.2185C12.0706 19.7255 11.6856 21.4168 11.5349 23.309H22.5006V23.3257Z" fill="white"/>
<path d="M38.5222 0H49.9734V31.2295H68.1212V42.1975H38.5222V0Z" fill="white"/>
<path d="M71.5532 0H83.0044V15.5561L94.1542 0H108.318L94.7569 17.7832C98.7749 18.4195 101.805 20.1275 103.864 22.8737C105.907 25.6199 106.945 29.354 106.945 34.0594V42.1975H95.4936V37.2577C95.4936 36.0186 95.4099 34.7627 95.2257 33.4901C95.0415 32.2175 94.6397 31.062 93.9868 30.0239C93.3507 28.9857 92.3964 28.1317 91.124 27.4619C89.8517 26.7921 88.1273 26.4739 85.9174 26.4739H83.0211V42.2142H71.57V0.0167422L71.5532 0Z" fill="white"/>
<path d="M0.0167387 72.9404C0.0167387 69.29 0.552468 65.874 1.60718 62.6925C2.67864 59.5109 4.25234 56.748 6.36177 54.4037C8.4712 52.0593 11.0996 50.2006 14.2638 48.8276C17.4112 47.4545 21.0775 46.7847 25.2629 46.7847H33.935V88.9822H22.4838V79.8729H11.4512V88.9822H0V72.9404H0.0167387ZM22.5006 70.1105V57.7527C21.0106 57.7527 19.6378 58.0373 18.3654 58.6234C17.0931 59.2095 15.9881 60.0467 15.0171 61.1184C14.0461 62.2068 13.276 63.4962 12.6733 65.0033C12.0706 66.5103 11.6856 68.2016 11.5349 70.0938H22.5006V70.1105Z" fill="white"/>
<path d="M38.5222 46.7852H49.9734V78.0146H68.1212V88.9826H38.5222V46.7852Z" fill="white"/>
<path d="M71.5532 46.7852H83.0044V88.9826H71.5532V46.7852Z" fill="white"/>
<path d="M87.5916 46.7852H92.5973C94.6062 46.7852 96.5315 47.0028 98.3563 47.4215C100.181 47.8401 101.872 48.4429 103.429 49.2299C104.969 50.0169 106.359 50.9714 107.581 52.1268C108.803 53.2655 109.808 54.5548 110.561 55.9614V46.8019H122.012V88.9994H110.561V76.8258C110.561 74.6154 110.243 72.5055 109.623 70.4961C109.004 68.4867 108.15 66.7117 107.095 65.1545C106.024 63.6139 104.802 62.3748 103.412 61.4706C102.023 60.5663 100.566 60.1142 99.0427 60.1142V88.9827H87.5916V46.7852Z" fill="white"/>
<path d="M126.583 46.7853H153.704V57.7533H138.034V62.2075H152.013V73.1755H138.034V77.9981H153.704V88.966H126.583V46.7686V46.7853Z" fill="white"/>
</svg>
