<svg width="329" height="74" viewBox="0 0 329 74" fill="none" xmlns="http://www.w3.org/2000/svg">
<path d="M0 73.6768V53.188H51.2289V73.6768H0Z" fill="white"/>
<path d="M0 51.1604V30.7538C17.0078 30.7538 30.7949 16.9804 30.7949 0H51.2152C51.2152 28.2458 28.2869 51.1467 0 51.1604Z" fill="white"/>
<path d="M203.518 56.2461C198.927 56.2461 194.774 54.6152 191.458 51.9564V55.5334H184.098V8.92304L191.458 6.20947V21.5864C194.774 18.9687 198.968 17.4064 203.518 17.4064C214.249 17.4064 222.951 26.0953 222.951 36.8262C222.951 47.5572 214.249 56.2461 203.518 56.2461ZM203.518 24.2862C196.583 24.2862 190.951 29.9052 190.951 36.8399C190.951 43.7746 196.57 49.3936 203.518 49.3936C210.466 49.3936 216.085 43.7746 216.085 36.8399C216.085 29.9052 210.466 24.2862 203.518 24.2862ZM264.532 55.5334H257.241V51.9427C253.911 54.6015 249.703 56.1913 245.112 56.1913C234.381 56.1913 225.679 47.5023 225.679 36.7714C225.679 26.0405 234.381 17.3516 245.112 17.3516C249.676 17.3516 253.87 18.955 257.186 21.5727V18.1876H264.546V36.7577V55.506L264.532 55.5334ZM245.112 24.2314C238.178 24.2314 232.545 29.8504 232.545 36.7851C232.545 43.7198 238.164 49.3388 245.112 49.3388C252.061 49.3388 257.68 43.7198 257.68 36.7851C257.68 29.8504 252.061 24.2314 245.112 24.2314ZM314.007 34.0715L329 55.5334H320.777L309.361 39.1012L302.001 47.1323V55.5471H294.642V9.51235L302.001 6.79878V37.6485L319.612 18.215H328.52L314.199 33.866L314.007 34.0715ZM172.476 55.5334V33.5782C172.476 30.6453 171.599 28.7814 170.146 26.9998C168.612 25.1085 165.843 23.8066 162.979 23.8066C160.279 23.8066 157.881 24.9441 156.209 26.712C154.441 28.5896 153.591 30.4809 153.591 33.77V55.5197H146.231V33.1807C146.231 30.3438 145.149 28.3429 143.614 26.6983C142.051 25.0263 139.804 23.7929 136.94 23.7929C134.075 23.7929 131.882 24.8481 130.361 26.3009C128.47 28.1099 127.36 30.2342 127.36 33.6467V55.4923H120V18.215H127.36V23.5325L127.935 22.765C129.278 21.1204 130.759 19.8733 132.581 18.9961C134.459 18.0916 136.611 17.4338 138.94 17.4338C141.846 17.4338 144.148 18.0642 146.218 19.2839C148.315 20.5311 150.151 22.1346 151.056 23.834L151.343 24.3136L151.631 23.834C153.262 21.7371 154.811 20.394 156.935 19.2428C159.141 18.0368 161.636 17.4338 164.336 17.4338C172.394 17.4338 179.795 23.6695 179.795 33.6056V55.5608H172.435L172.476 55.5334ZM288.913 24.1629C288.022 23.9162 287.063 23.7929 286.021 23.7929C283.212 23.7929 280.827 24.7522 279.128 26.5613C277.333 28.4662 276.25 31.3306 276.25 34.7431V55.5334H268.89V18.215H276.25V23.5325L276.935 22.6005C278.127 20.9559 279.662 19.6814 281.485 18.7906C283.363 17.8861 285.501 17.4201 287.844 17.4201C289.05 17.4201 290.201 17.5297 291.284 17.7353L288.913 24.1766V24.1629Z" fill="white"/>
<path d="M109.406 40.5268C107.83 45.6524 103.047 49.3939 97.4006 49.3939C93.4399 49.3939 89.2325 47.626 87.0123 43.8982L116.437 33.1673C116.409 32.9754 116.382 32.7835 116.341 32.5917C115.902 30.5496 115.203 28.7543 114.038 26.8356C110.64 21.2029 104.459 17.4478 97.3869 17.4478C87.9168 17.4478 80.0228 24.218 78.3097 33.181C78.0767 34.3733 77.9534 35.6068 77.9534 36.8676C77.9534 37.9229 78.0356 38.9645 78.2001 39.9649C78.2275 40.1568 78.2686 40.3486 78.3097 40.5542C78.7483 42.8292 79.5842 44.9672 80.7492 46.8859C84.148 52.5186 90.3289 56.2738 97.4006 56.2738C106.871 56.2738 114.765 49.5035 116.478 40.5405H109.406V40.5268ZM84.8332 36.8402C84.8332 35.5519 85.0251 34.3185 85.3814 33.1536C86.9575 28.0279 91.7405 24.2865 97.3869 24.2865C101.471 24.2865 105.089 26.2326 107.392 29.2477L96.7291 33.1536L84.8332 37.5117C84.8332 37.2925 84.8195 37.0732 84.8195 36.8402H84.8332Z" fill="white"/>
</svg>
