<svg width="248" height="74" viewBox="0 0 248 74" fill="none" xmlns="http://www.w3.org/2000/svg">
<g clip-path="url(#clip0_318_25)">
<path d="M124.658 33.8699H101.745V28.14H124.658V21.7655H101.745V16.6491H124.658V10.3057H93.6128V40.2136H124.658V33.8699Z" fill="white"/>
<path d="M222.776 22.0047L241.914 39.9014H248V10.3057H239.92V28.2129L220.793 10.3057H214.697V39.9014H222.776V22.0047Z" fill="white"/>
<path d="M206.002 10.3057H172.71V39.9014H206.002V10.3057ZM197.934 33.6412H180.778V16.5867H197.934V33.6412Z" fill="white"/>
<path d="M59.4927 22.1295L78.7368 40.2136H84.8652V10.3057H76.7542V28.4002L57.5101 10.3057H51.3711V40.2136H59.4927V22.1295Z" fill="white"/>
<path d="M148.694 30.7608L156.975 39.9014H167.175L153.805 25.1243L167.196 10.3057H156.985L148.694 19.4777L140.413 10.3057H130.203L143.594 25.1243L130.224 39.9014H140.435L148.694 30.7608Z" fill="white"/>
<path d="M29.3164 47.9424L1.5 62.4463V41.8965L29.3164 47.9424Z" stroke="white" stroke-width="3"/>
<path d="M33.6851 0L0 17.5641V40.0365L33.6851 47.3575V0Z" fill="white"/>
<path d="M71.0928 57.022L41.5732 72.4185L4.36719 64.3354L33.8965 48.939L71.0928 57.022Z" stroke="white" stroke-width="3"/>
</g>
<defs>
<clipPath id="clip0_318_25">
<rect width="248" height="74" fill="white"/>
</clipPath>
</defs>
</svg>
