<svg width="530" height="299" viewBox="0 0 530 299" fill="none" xmlns="http://www.w3.org/2000/svg">
<g clip-path="url(#clip0_345_1438)">
<path d="M530 0H0V299H530V0Z" fill="#2B0C62"/>
<path d="M530 257.798C529.615 257.013 529.209 256.239 528.781 255.475C525.727 250.03 521.476 245.045 515.861 242.337C510.246 239.63 503.129 239.56 498.083 243.227C491.245 248.195 489.753 258.339 482.895 263.277C477.026 267.503 468.516 266.924 463.112 271.735C456.643 277.495 457.952 288.506 463.275 295.345C464.303 296.665 465.437 297.875 466.648 299H529.999V257.798H530Z" fill="#541EA8"/>
<path d="M459.226 231.412C454.598 231.572 450.275 233.701 446.286 236.058C430.415 245.441 417.196 259.282 408.531 275.59C406.393 279.612 404.219 284.092 400.085 285.984C391.761 289.795 383.237 280.695 374.148 279.626C364.814 278.53 356.119 287.114 355.266 296.5C355.19 297.336 355.166 298.171 355.19 299H447.335C445.573 295.769 443.464 292.681 442.132 289.248C438.539 279.986 441.512 268.569 449.161 262.25C453.717 258.486 459.513 256.544 464.272 253.043C469.031 249.542 472.806 243.325 470.585 237.841C468.843 233.537 463.854 231.252 459.226 231.411V231.412Z" fill="#541EA8"/>
<path d="M530 172.093C525.923 171.144 521.468 171.236 517.262 171.654C508.789 172.497 500.418 174.352 492.38 177.168C486.312 179.294 480.243 182.104 475.992 186.938C471.741 191.772 469.722 199.05 472.546 204.841C475.07 210.015 480.638 212.831 485.832 215.289C494.541 219.41 503.58 223.613 513.208 223.816C519.566 223.95 525.262 222.468 530 219.756V172.092V172.093Z" fill="#541EA8"/>
<path d="M383.002 240.485C377.803 237.49 371.515 237.321 365.519 237.181C359.525 237.041 353.216 236.762 348.116 233.597C335.059 225.495 335.742 202.613 321.265 197.485C311.59 194.057 301.486 201.208 294.542 208.786C289.307 214.498 284.468 221.088 283.319 228.762C282.171 236.436 285.834 245.295 293.162 247.787C302.11 250.83 311.379 243.662 320.827 243.774C330.641 243.89 339.194 252.777 340.054 262.584C340.914 272.39 334.814 282.115 326.117 286.679C317.42 291.242 306.663 290.975 297.623 287.142C288.582 283.31 281.177 276.203 275.767 267.99C269.585 258.605 264.961 246.915 254.668 242.447C245.47 238.454 234.873 241.731 225.569 245.469C216.265 249.206 206.353 253.478 196.566 251.311C190.812 250.038 185.79 246.649 180.49 244.066C175.19 241.482 168.973 239.674 163.461 241.763C154.358 245.211 152.091 258.487 157.679 266.476C163.266 274.466 173.963 277.437 183.657 276.592C193.351 275.746 202.445 271.756 211.561 268.346C222.97 264.079 236.496 260.867 246.712 267.513C254.215 272.394 257.868 281.4 260.184 290.064C260.974 293.016 261.671 296.024 262.442 299.002H341.149C344.202 294.448 346.895 289.585 349.786 284.927C355.168 276.261 361.955 267.697 371.562 264.321C377.858 262.109 385.895 261.62 388.963 255.679C391.721 250.338 388.2 243.482 383.001 240.485H383.002Z" fill="#541EA8"/>
<path d="M198.773 294.543C197.796 295.905 196.94 297.416 196.27 299.001H244.269C241.023 290.127 230.7 282.572 221.657 282.468C212.698 282.366 204.006 287.251 198.772 294.543H198.773Z" fill="#541EA8"/>
<path d="M457.785 171.167C450.268 172.489 442.485 172.809 435.37 175.574C428.255 178.34 421.691 184.364 421.172 192C420.449 202.663 431.127 210.572 433.949 220.88C436.331 229.585 432.169 239.654 424.345 244.117C416.521 248.58 405.765 247.019 399.523 240.514C392.334 233.022 390.776 220.172 381.385 215.768C375.459 212.988 368.547 214.72 362.013 215.052C355.48 215.383 347.539 213.064 346 206.688C344.675 201.201 349.186 195.751 354.421 193.675C359.655 191.598 365.471 191.889 371.084 191.475C376.698 191.061 382.74 189.629 386.246 185.211C391.089 179.112 389.13 170.292 387.397 162.691C385.663 155.09 385.011 145.673 391.197 140.95C397.049 136.481 405.636 139.091 411.655 143.332C417.675 147.573 422.881 153.356 429.902 155.555C439.596 158.592 450.274 153.796 457.48 146.617C464.686 139.438 469.321 130.148 474.728 121.526C480.136 112.903 486.875 104.468 496.311 100.697C503.997 97.6252 520.161 98.7603 523.447 108.46C526.198 116.579 516.173 130.388 511.69 136.614C498.916 154.354 479.375 167.37 457.788 171.167H457.785Z" fill="#541EA8"/>
<path d="M473.087 80.4287C469.966 72.7281 473.32 62.1676 466.915 56.8935C461.192 52.1829 451.702 56.7246 449.247 63.729C446.791 70.7333 449.408 78.5087 453.012 84.9926C456.617 91.4779 461.271 97.5091 463.332 104.641C467.069 117.577 460.504 132.723 448.523 138.806C436.543 144.888 420.484 141.227 412.304 130.546C407.919 124.821 405.81 117.708 402.422 111.338C399.033 104.969 393.54 98.8767 386.371 98.2178C377.919 97.4412 370.473 104.815 368.053 112.974C365.634 121.133 366.971 129.87 368.123 138.305C369.277 146.739 370.174 155.624 366.979 163.512C362.182 175.356 348.984 182.028 336.261 182.803C323.539 183.578 311.064 179.561 298.965 175.537C292.572 173.411 285.859 171.242 279.221 172.396C272.585 173.551 266.21 179.257 266.791 185.987C267.59 195.231 280.269 201.225 278.559 210.343C277.412 216.458 270.47 219.282 264.524 221.057C250.164 225.343 235.803 229.628 221.443 233.913C214.012 236.13 205.972 238.341 198.664 235.745C186.844 231.546 182.997 213.617 192.049 204.912C199.346 197.896 210.631 198.038 220.709 197.227C230.786 196.417 242.576 192.594 245.17 182.795C249.212 167.53 227.146 154.168 231.6 139.02C234.543 129.013 248.112 125.82 257.672 129.93C267.233 134.04 273.742 142.898 280.246 151.041C286.749 159.183 294.474 167.435 304.695 169.377C317.05 171.726 329.657 163.599 335.782 152.585C341.908 141.57 342.678 128.348 341.694 115.774C340.851 105.009 338.837 94.1301 340.747 83.5045C342.656 72.8776 349.742 62.2229 360.327 60.2462C370.994 58.2543 381.001 65.3513 389.704 71.8491C398.409 78.3468 408.98 84.958 419.398 81.9154C426.531 79.8321 431.689 73.596 435.293 67.0789C438.895 60.5632 441.432 53.4287 445.767 47.3781C454.954 34.5557 472.302 28.2394 487.55 32.1651C504.102 36.4245 523.429 55.9758 513.317 73.5046C506.369 85.5491 481.149 100.325 473.087 80.4287Z" fill="#541EA8"/>
<path d="M442.234 0C444.598 0.494181 446.918 1.13094 449.15 2.06531C456.591 5.18128 462.339 11.3052 469.268 15.4428C480.834 22.3502 495.768 23.2348 508.064 17.7379C514.914 14.6759 523.491 7.86675 528.226 0H442.234Z" fill="#541EA8"/>
<path d="M426.881 50.6285C419.791 56.7344 409.346 58.6378 400.568 55.4235C393.445 52.8142 387.507 47.1733 380.054 45.7697C374.245 44.6761 367.133 45.8749 363.401 41.2778C360.831 38.112 361.239 33.2685 363.395 29.805C365.551 26.3416 369.094 24.0036 372.669 22.0504C386.486 14.5034 402.525 11.1134 418.205 12.4271C422.061 12.751 425.995 13.385 429.358 15.3063C441.863 22.4546 435.646 43.0787 426.881 50.6285Z" fill="#541EA8"/>
<path d="M340.735 0.000407697C339.992 1.60476 339.367 3.14129 338.871 4.56016C335.291 14.8189 333.714 25.6507 331.344 36.2569C330.59 39.6318 329.7 43.1021 327.569 45.8194C325.436 48.5381 321.726 50.3099 318.472 49.1665C314.582 47.7989 312.975 42.9194 313.633 38.8386C314.291 34.7578 316.584 31.1642 318.284 27.3991C322.132 18.8817 322.869 8.94549 320.284 -0.000976562H257.05C256.223 8.40701 259.752 17.3992 267.519 20.1815C276.728 23.4816 288.996 17.5514 295.734 24.6568C301.389 30.6202 297.656 40.6755 292.084 46.7164C286.512 52.7573 279.088 57.8182 276.85 65.7347C273.626 77.1383 284.105 89.1855 295.85 90.5047C307.596 91.8239 318.988 84.8375 326.403 75.6073C333.817 66.377 338.079 55.0787 342.739 44.186C347.397 33.2918 352.807 22.2828 361.791 14.5808C365.163 11.6891 372.787 6.22404 378.82 -0.000976562H340.735V0.000407697Z" fill="#541EA8"/>
<path d="M211.333 1.54483C209.641 1.39533 208.09 0.782107 206.585 0H179.416C178.397 0.516329 177.391 1.04096 176.403 1.55314C169.201 5.2851 159.978 8.34432 153.459 3.51187C152.144 2.53596 151.086 1.34135 150.201 0H95.4135C94.0995 1.70541 92.9029 3.50079 91.8553 5.4083C86.3855 15.3722 86.1909 29.1663 94.3949 37.0192C102.498 44.7766 115.667 44.1676 126.006 39.8431C136.345 35.5187 145.163 28.178 155.288 23.3691C165.413 18.5601 178.194 16.6693 187.308 23.2002C196.399 29.7145 199.383 42.7985 209.057 48.4048C220.328 54.9357 235.514 47.4635 241.942 36.1112C248.034 25.3499 248.392 12.4348 248.305 0H217.407C215.574 1.12402 213.53 1.73863 211.333 1.54483Z" fill="#541EA8"/>
<path d="M15.0701 2.2745C9.33952 8.48982 6.16918 17.8626 9.55484 25.6173C12.5582 32.4984 19.8029 36.4671 26.8875 38.9048C33.9721 41.3425 41.5412 42.8347 47.7645 47.0138C58.4266 54.1732 62.8019 67.4136 67.7982 79.2656C72.7946 91.119 80.7543 103.71 93.4163 105.787C102.473 107.272 111.567 102.741 118.413 96.6104C125.258 90.4795 130.487 82.772 136.737 76.0306C142.986 69.2907 150.794 63.2927 159.911 62.2268C169.025 61.1609 179.332 66.637 181.002 75.6873C182.616 84.44 176.197 92.5296 174.556 101.277C172.749 110.908 177.448 121.432 185.814 126.495C194.181 131.559 205.653 130.82 213.308 124.726C222.985 117.021 226.381 102.323 237.662 97.2679C246.606 93.2591 257.356 97.1586 264.759 103.593C272.163 110.027 277.245 118.664 283.425 126.288C289.607 133.909 297.687 140.916 307.433 141.913C317.178 142.91 328.085 135.307 327.357 125.51C326.778 117.698 319.481 111.994 312.065 109.534C304.649 107.075 296.635 106.801 289.269 104.2C273.161 98.511 262.181 80.8326 264.192 63.8242C264.871 58.0865 266.63 51.5112 262.918 47.0913C259.269 42.7461 252.189 43.3275 247.348 46.2773C242.508 49.2272 239.005 53.9254 234.613 57.5148C225.321 65.1088 211.859 67.188 200.719 62.7486C188.767 57.9854 179.852 46.5777 167.26 43.9462C157.378 41.8809 147.196 45.725 138.458 50.7928C129.72 55.8606 121.669 62.2434 112.303 66.021C102.937 69.7987 91.5006 70.5282 83.3504 64.5537C74.789 58.2789 72.2273 46.4573 72.9133 35.8456C73.6586 24.4877 77.8917 11.8522 77.3231 0.00292969H17.3751C16.5746 0.724129 15.8044 1.47993 15.0701 2.27727V2.2745Z" fill="#541EA8"/>
<path d="M39.9087 66.3525C35.4092 62.2232 28.533 62.5153 22.4739 63.2226C16.4162 63.93 9.6863 64.6374 4.76862 61.0189C2.99367 59.7122 1.62174 57.9389 0 56.4453V83.6031C4.50086 89.4391 10.7698 94.2397 17.8723 95.6918C27.2591 97.6104 37.6231 92.5246 41.8755 83.9159C44.6732 78.2502 44.56 70.6215 39.9087 66.3525Z" fill="#541EA8"/>
<path d="M30.9374 150.086C36.3754 156.202 42.8665 162.515 51.0235 162.997C58.2103 163.422 64.7497 159.181 70.697 155.114C75.3939 151.902 80.1639 148.624 83.7331 144.188C87.3037 139.751 89.5631 133.904 88.4258 128.317C86.9421 121.029 80.0134 115.892 72.8115 114.115C65.6096 112.337 58.0626 113.226 50.6702 113.823C43.2778 114.419 35.5638 114.664 28.7456 111.737C21.3201 108.549 -0.258111 96.4683 5.48908 114.919C9.57449 128.034 22.064 140.111 30.9346 150.088L30.9374 150.086Z" fill="#541EA8"/>
<path d="M40.8253 168.81C34.4018 162.534 27.1847 155.885 18.2395 155.262C13.0003 154.898 6.08404 156.898 0.00146484 160.311V193.432C13.5896 198.808 32.4819 196.503 42.1061 187.244C44.5629 184.881 46.7408 181.815 46.6249 178.403C46.4952 174.567 43.5677 171.487 40.8266 168.809L40.8253 168.81Z" fill="#541EA8"/>
<path d="M212.29 136.844C205.369 130.748 194.734 136.33 185.528 136.035C173.953 135.664 165.244 125.875 157.304 117.42C149.363 108.965 138.454 100.504 127.32 103.698C118.919 106.108 113.748 114.327 109.366 121.909C100.616 137.045 91.8666 152.18 83.1161 167.315C81.5261 170.065 79.9043 172.907 79.4944 176.058C78.3336 184.962 87.7163 192.372 96.667 192.593C105.618 192.815 113.859 188.093 121.56 183.515C129.263 178.938 137.495 174.206 146.446 174.404C155.396 174.602 164.804 181.968 163.688 190.878C162.742 198.441 155.166 203.254 148.001 205.798C133.71 210.874 118.205 211.3 103.064 210.538C87.9233 209.775 72.799 207.878 57.6526 208.512C42.5062 209.146 27.0285 212.524 14.655 221.31C8.66072 225.566 3.52497 231.265 -0.00146484 237.731V273.866C5.587 282.602 15.1808 288.721 25.4468 287.992C33.4852 287.424 40.7009 283.139 47.9911 279.697C55.2814 276.254 63.6952 273.556 71.2808 276.283C80.9077 279.742 85.2278 290.054 90.8025 299H173.741C173.387 295.462 171.982 292.007 169.309 289.033C161.639 280.502 148.48 281.07 137.037 280.576C120.551 279.865 104.23 275.523 89.5603 267.946C84.1126 265.131 78.8002 261.801 74.8155 257.132C70.8308 252.463 68.2913 246.269 69.0987 240.177C70.5465 229.257 81.7248 222.394 92.3276 219.516C104.928 216.095 118.415 216.025 131.051 219.312C138.617 221.282 146.047 224.454 153.863 224.346C166.239 224.175 177.714 214.964 181.431 203.124C185.149 191.283 181.37 177.639 172.729 168.751C166.209 162.044 157.482 158.042 148.969 154.187C141.823 150.951 134.677 147.714 127.531 144.478C145.123 135.455 168.85 141.057 180.584 157.003C183.735 161.284 186.081 166.165 189.641 170.112C193.2 174.058 198.51 177.044 203.688 175.884C211.834 174.057 214.581 164.008 215.787 155.724C216.751 149.103 217.299 141.26 212.287 136.844H212.29Z" fill="#541EA8"/>
<path d="M49.8434 291.802C43.9223 291.875 38.1654 293.686 32.6018 295.722C29.6136 296.816 26.6393 297.983 23.6235 299.001H66.8061C66.5259 298.618 66.2416 298.268 65.9614 297.963C61.9423 293.6 55.7658 291.729 49.8434 291.802Z" fill="#541EA8"/>
<path d="M131.139 262.871C120.862 264.109 112.385 254.451 102.154 252.863C98.0248 252.222 93.3294 252.787 90.1438 250.075C86.5967 247.057 86.9045 241.1 89.7519 237.411C92.5992 233.721 97.2243 231.893 101.753 230.824C112.886 228.197 132.308 228.101 140.924 237.375C148.767 245.813 142.317 261.526 131.137 262.871H131.139Z" fill="#541EA8"/>
</g>
<defs>
<clipPath id="clip0_345_1438">
<rect width="530" height="299" fill="white"/>
</clipPath>
</defs>
</svg>
