<svg width="160" height="89" viewBox="0 0 160 89" fill="none" xmlns="http://www.w3.org/2000/svg">
<path d="M138.479 3.28369H119.675V71.8414H138.479V3.28369Z" fill="white"/>
<path d="M156.928 56.2065H141.216V71.8411H156.928V56.2065Z" fill="white"/>
<path d="M21.9936 69.3202V86.3814H3.15039V16.7488H21.0485L21.2454 20.1298C26.1679 16.2602 31.5235 14.7163 37.588 15.0094C45.6412 15.3808 52.7689 19.1722 57.4157 25.7778C64.4844 35.8621 65.3901 51.1058 58.479 61.581C53.4384 69.3788 44.9717 73.8347 35.619 73.6783C30.6375 73.6783 26.2663 72.408 21.9936 69.3202ZM44.5582 44.3243C44.5582 37.9141 39.3207 32.7156 32.8624 32.7156C26.4041 32.7156 21.1666 37.9141 21.1666 44.3243C21.1666 50.7345 26.4041 55.933 32.8624 55.933C39.3207 55.933 44.5582 50.7345 44.5582 44.3243Z" fill="white"/>
<path d="M119.459 71.841L96.382 71.9387L86.7339 57.0858L76.9481 71.8801L63.9724 71.9582L54.0291 72.0169L75.1563 42.5652L56.3918 16.8072L79.114 16.729L86.7536 28.924L94.2752 16.7485H116.899L98.0556 42.4284L119.459 71.841Z" fill="white"/>
</svg>
