<svg width="314" height="46" viewBox="0 0 314 46" fill="none" xmlns="http://www.w3.org/2000/svg">
<g clip-path="url(#clip0_238_532)">
<path d="M22.5216 4.06789C28.5348 4.06789 29.248 4.09041 31.6221 4.19926C34.077 4.31187 36.605 4.87116 38.3936 6.65974C40.1991 8.46522 40.7415 10.9689 40.8541 13.4312C40.9629 15.8054 40.9855 16.5186 40.9855 22.5318C40.9855 28.5451 40.9629 29.2582 40.8541 31.6324C40.7434 34.0741 40.1709 36.6265 38.3936 38.4039C36.5881 40.2093 34.0864 40.7517 31.6221 40.8643C29.248 40.9732 28.5348 40.9957 22.5216 40.9957C16.5083 40.9957 15.7951 40.9732 13.421 40.8643C10.998 40.7536 8.4118 40.1681 6.64949 38.4039C4.85339 36.6078 4.30162 34.0797 4.18901 31.6324C4.08015 29.2582 4.05763 28.5451 4.05763 22.5318C4.05763 16.5186 4.08015 15.8054 4.18901 13.4312C4.29974 10.9989 4.87779 8.43144 6.64949 6.65974C8.45121 4.85802 10.9642 4.31187 13.421 4.19926C15.7951 4.09041 16.5083 4.06789 22.5216 4.06789ZM22.5216 0.0102539C16.4051 0.0102539 15.6375 0.036529 13.2352 0.145383C9.75371 0.304911 6.29665 1.27334 3.77987 3.79012C1.2537 6.31629 0.294657 9.76584 0.135129 13.2454C0.0262751 15.6477 0 16.4153 0 22.5318C0 28.6483 0.0262751 29.4159 0.135129 31.8182C0.294657 35.2959 1.26684 38.7623 3.77987 41.2735C6.30416 43.7978 9.75934 44.7587 13.2352 44.9182C15.6375 45.0271 16.4051 45.0534 22.5216 45.0534C28.638 45.0534 29.4056 45.0271 31.8079 44.9182C35.2875 44.7587 38.7483 43.7884 41.2632 41.2735C43.7913 38.7454 44.7484 35.2978 44.908 31.8182C45.0168 29.4159 45.0431 28.6483 45.0431 22.5318C45.0431 16.4153 45.0168 15.6477 44.908 13.2454C44.7484 9.76396 43.7781 6.30503 41.2632 3.79012C38.7427 1.26958 35.2781 0.303034 31.8079 0.145383C29.4056 0.036529 28.638 0.0102539 22.5216 0.0102539Z" fill="white"/>
<path d="M22.5216 10.9668C16.1349 10.9668 10.9568 16.1449 10.9568 22.5316C10.9568 28.9184 16.1349 34.0964 22.5216 34.0964C28.9083 34.0964 34.0864 28.9184 34.0864 22.5316C34.0864 16.1449 28.9083 10.9668 22.5216 10.9668ZM22.5216 30.0388C18.3758 30.0388 15.0144 26.6775 15.0144 22.5316C15.0144 18.3858 18.3758 15.0244 22.5216 15.0244C26.6674 15.0244 30.0288 18.3858 30.0288 22.5316C30.0288 26.6775 26.6674 30.0388 22.5216 30.0388Z" fill="white"/>
<path d="M34.5444 13.2118C36.037 13.2118 37.247 12.0018 37.247 10.5092C37.247 9.01663 36.037 7.80664 34.5444 7.80664C33.0518 7.80664 31.8418 9.01663 31.8418 10.5092C31.8418 12.0018 33.0518 13.2118 34.5444 13.2118Z" fill="white"/>
</g>
<g clip-path="url(#clip1_238_532)">
<path d="M76.9199 11.5693L93.5784 33.3496H96.1308L79.6619 11.5693H76.9199Z" fill="white"/>
<path d="M86.5648 0.0102539C74.1272 0.0102539 64.0432 10.0943 64.0432 22.5318C64.0432 34.9693 74.1272 45.0534 86.5648 45.0534C99.0023 45.0534 109.086 34.9693 109.086 22.5318C109.086 10.0943 99.0023 0.0102539 86.5648 0.0102539ZM92.3134 36.1048L85.0502 26.6176L76.751 36.1048H72.1378L82.8975 23.8043L71.5504 8.95882H81.0507L87.6083 17.6315L95.1961 8.95882H99.8037L89.7422 20.4561L101.579 36.1029L92.3134 36.1048Z" fill="white"/>
</g>
<g clip-path="url(#clip2_238_532)">
<path d="M166.75 10.6218C166.796 11.0122 166.789 17.8969 166.745 18.1866C166.627 18.2414 166.496 18.2144 166.37 18.2125C164.656 18.1857 162.983 17.9051 161.348 17.3942C159.642 16.8605 158.024 16.0762 156.549 15.0669C156.461 15.0072 156.37 14.9538 156.279 14.8986C156.271 14.8936 156.257 14.8986 156.244 14.8986C156.175 14.9297 156.195 14.9955 156.194 15.0498C156.19 15.168 156.192 15.2864 156.192 15.4048C156.192 20.36 156.18 25.3153 156.195 30.2705C156.213 35.772 152.948 40.8121 147.9 43.0782C146.607 43.6582 145.257 44.0262 143.849 44.1962C136.828 45.0424 130.342 40.4994 128.608 33.7434C128.24 32.3132 128.114 30.8597 128.204 29.3819C128.566 23.4483 132.748 18.3172 138.533 16.7528C140.042 16.3446 141.577 16.2096 143.135 16.3038C143.383 16.3189 143.629 16.351 143.876 16.3803C143.932 16.3869 143.985 16.4147 144.034 16.431C144.084 16.7663 144.102 20.992 144.067 23.854C144.066 23.9466 144.055 24.0393 144.046 24.1557C143.915 24.1273 143.801 24.1062 143.69 24.0778C143.185 23.9487 142.667 23.884 142.146 23.8854C139.326 23.8959 136.803 25.8106 136.034 28.5269C135.014 32.1352 137.285 35.8563 140.976 36.5602C144.507 37.2345 147.599 34.9564 148.379 31.8411C148.511 31.313 148.577 30.7705 148.575 30.2262V30.1552L148.579 9.6839C148.579 6.60909 148.581 3.53429 148.583 0.459478C148.583 0.331169 148.589 0.202682 148.592 0.0552067C148.672 0.042784 148.739 0.0248597 148.805 0.0237949C149.066 0.0202455 149.326 0.0218428 149.586 0.0218428H155.724C155.864 0.0218428 156.004 0.0268119 156.139 0.0294739C156.221 0.154766 156.192 0.276509 156.196 0.390443C156.289 2.33372 156.827 4.14052 157.904 5.76577C159.596 8.3213 161.96 9.88302 164.971 10.4474C165.468 10.5405 165.981 10.5538 166.487 10.6044C166.568 10.6128 166.649 10.6163 166.75 10.6218Z" fill="white"/>
</g>
<g clip-path="url(#clip3_238_532)">
<path d="M217.804 45.0635C217.804 45.0635 237.805 45.0638 242.793 43.7188C245.545 42.9782 247.713 40.7969 248.448 38.0273C249.78 33.0253 249.784 22.61 249.784 22.5322C249.784 22.5322 249.785 12.0576 248.448 7.03711C247.713 4.26715 245.545 2.08598 242.793 1.3457C237.805 0.000335693 217.804 0 217.804 0C217.744 3.8147e-06 197.795 0.00233841 192.814 1.3457C190.063 2.08604 187.896 4.26723 187.16 7.03711C185.824 12.0575 185.823 22.5322 185.823 22.5322C185.823 22.61 185.829 33.0253 187.16 38.0273C187.896 40.7968 190.063 42.9782 192.814 43.7188C197.795 45.0618 217.744 45.0635 217.804 45.0635ZM211.263 13.0215L227.979 22.5322L211.263 32.042V13.0215Z" fill="white"/>
</g>
<g clip-path="url(#clip4_238_532)">
<path fill-rule="evenodd" clip-rule="evenodd" d="M272.796 0.0102539L269.77 7.74148V39.3385H280.527V45.0534H286.577L292.292 39.3385H301.032L312.796 27.5738V0.0102539H272.796ZM308.763 25.5581L302.039 32.2794H291.283L285.568 37.9943V32.2794H276.492V4.04302H308.762V25.5581H308.763ZM302.039 11.7749V23.5396H298.006V11.7749H302.039ZM291.282 11.7749V23.5396H287.249V11.7749H291.282Z" fill="white"/>
</g>
<defs>
<clipPath id="clip0_238_532">
<rect width="45.0431" height="45.0431" fill="white" transform="translate(0 0.0102539)"/>
</clipPath>
<clipPath id="clip1_238_532">
<rect width="45.0431" height="45.0431" fill="white" transform="translate(64.0432 0.0102539)"/>
</clipPath>
<clipPath id="clip2_238_532">
<rect width="38.7371" height="45.0222" fill="white" transform="translate(128.086 0.0205078)"/>
</clipPath>
<clipPath id="clip3_238_532">
<rect width="63.9612" height="45.0636" fill="white" transform="translate(185.823)"/>
</clipPath>
<clipPath id="clip4_238_532">
<rect width="45.0431" height="45.0431" fill="white" transform="translate(268.784 0.0102539)"/>
</clipPath>
</defs>
</svg>
