<svg width="215" height="99" viewBox="0 0 215 99" fill="none" xmlns="http://www.w3.org/2000/svg">
<g clip-path="url(#clip0_318_51)">
<path fill-rule="evenodd" clip-rule="evenodd" d="M196.851 98.9402L175.131 66.9936L173.127 69.8202L192.983 98.9402H174.654L163.757 83.0315L152.474 98.9402H134.867L165.751 55.4097C167.844 52.6035 170.802 50.0131 175.42 50.0131C179.894 50.0131 182.852 52.3877 184.945 55.4097L215.179 98.9402H196.851ZM133.794 50.0719C134.597 50.0719 135.214 50.6886 135.214 51.4571C135.214 52.2431 134.597 52.8599 133.794 52.8599C132.998 52.8599 132.364 52.2431 132.364 51.4571C132.364 50.6886 132.998 50.0719 133.794 50.0719ZM133.802 52.5641C134.411 52.5641 134.859 52.0739 134.859 51.4658C134.859 50.8491 134.411 50.3506 133.794 50.3506C133.176 50.3506 132.719 50.8491 132.719 51.4571C132.719 52.0739 133.176 52.5641 133.802 52.5641ZM134.115 51.4996C134.25 51.5504 134.326 51.6519 134.368 51.8375C134.411 52.0488 134.436 52.1334 134.47 52.1841H134.123C134.081 52.1334 134.056 52.0067 134.013 51.8462C133.988 51.694 133.903 51.6263 133.726 51.6263H133.573V52.1841H133.252V50.7984C133.379 50.7731 133.556 50.7561 133.785 50.7561C134.047 50.7561 134.166 50.7984 134.267 50.8576C134.343 50.9167 134.402 51.0265 134.402 51.1618C134.402 51.3135 134.284 51.432 134.115 51.4827V51.4996ZM133.734 51.3981C133.912 51.3981 134.056 51.3392 134.056 51.1956C134.056 51.0687 133.962 50.9842 133.76 50.9842C133.675 50.9842 133.616 50.9927 133.582 51.0012V51.3981H133.734ZM69.8296 37.3075V48.5055H49.8273V-0.181641H69.8296V11.0164H61.6752V17.6796H67.8784V28.8776H61.6752V37.3075H69.8296ZM34.5507 28.8776V48.5055H22.7026V-0.181641H34.5507V17.6796H37.0598V-0.181641H48.9078V48.5055H37.0598V28.8776H34.5507ZM4.90929 48.5055V10.9468H-0.178467V-0.181641H21.8451V10.9468H16.7574V48.5055H4.90929ZM121.277 66.6972V63.0113C121.285 61.4762 121.244 61.1465 120.162 61.1332H119.404C118.473 61.1429 118.278 61.2701 118.289 62.7329V62.8718C118.289 66.3563 117.689 65.3693 123.941 70.4201C132.318 77.1952 132.36 77.9684 132.36 85.3377V87.4937C132.36 96.675 130.199 99.1812 121.836 99.1812H117.445C109.082 99.1812 106.922 96.675 106.922 87.4937V81.1647H118.003V86.2416C118.003 87.6327 117.884 88.0982 119.118 88.1197H119.877C120.848 88.0921 120.854 87.6327 120.854 86.2416L120.861 85.2552C120.861 81.7076 121.203 82.7582 114.427 77.2567C106.669 70.8759 106.922 69.9817 106.922 62.9415V61.7592C106.922 52.5779 109.082 50.0718 117.445 50.0718H121.836C130.199 50.0718 132.36 52.5779 132.36 61.7592V66.6972H121.277ZM99.8904 50.2829V87.7721H106.581V98.9699H88.0421V50.2829H99.8904ZM65.7429 50.2829H82.1208L87.8358 98.9699H76.5953L76.1774 93.267H71.7864L71.3685 98.9699H60.0279L65.7429 50.2829ZM72.5533 83.1817H75.4105C74.7134 74.0702 74.2257 66.2106 73.947 58.6988C73.5984 66.2106 73.1806 74.0702 72.5533 83.1817ZM49.6813 61.2721V50.2829H59.857V98.9699H46.9633L44.524 85.4767C43.8968 81.9297 43.4089 78.5216 42.9907 74.7654C43.0603 78.5908 43.1301 81.9297 43.1301 85.4767V98.9699H32.9546V50.2829H46.8936L48.3572 61.2721C48.8451 64.6802 49.4026 68.2277 49.8208 71.9137C49.7511 68.158 49.6813 64.7499 49.6813 61.2721ZM20.2525 98.9699V50.2829H32.1006V98.9699H20.2525ZM-0.154853 98.9699V50.2829H19.3597V61.4808H11.6933V68.1559H17.4082V79.3543H11.6933V98.9699H-0.154853Z" fill="white"/>
</g>
<defs>
<clipPath id="clip0_318_51">
<rect width="215" height="99" fill="white"/>
</clipPath>
</defs>
</svg>
